<svg xmlns="http://www.w3.org/2000/svg" xmlns:xlink="http://www.w3.org/1999/xlink" viewBox="0 0 564.15 349.12"><defs><style>.cls-1{fill:none;}.cls-2{clip-path:url(#clip-path);}.cls-3{fill:#040000;stroke:#231815;stroke-miterlimit:10;}.cls-4{fill:#a92335;}</style><clipPath id="clip-path" transform="translate(28.98 39.22)"><path id="SVGID" class="cls-1" d="M114.49,22.89H22.87l.38,23.26,57.05-.39.26,24H0V0L114.49.71ZM92.21,92.15H0v23.11H115.17V45.85h-23Zm45.58,23.11H161.6L160.74,0h-23Zm34.78,0h80.52V0H172.57V23.06h57.05V91.42H172.57Zm103.31,0h23.3V45.85h-23.3Zm0-91.85h23.3V0h-23.3Zm46.26,91.85h22.74V0H322.14ZM369.16,0V69.75h21.36V0Zm46.45,115.26h21.61V.71H415.61Z"/></clipPath></defs><g id="图层_2" data-name="图层 2"><g id="图层_1-2" data-name="图层 1"><g class="cls-2"><rect class="cls-3" x="0.5" y="0.5" width="563.15" height="348.12"/><rect class="cls-4" x="296.57" y="39.92" width="39.89" height="39.89"/></g></g></g></svg>